<svg aria-hidden="true" style="position: absolute; width: 0; height: 0; overflow: hidden;" version="1.1" xmlns="http://www.w3.org/2000/svg" xmlns:xlink="http://www.w3.org/1999/xlink">
<defs>
<symbol id="icon-close" viewBox="0 0 32 32">
<path stroke-linejoin="miter" stroke-linecap="butt" stroke-miterlimit="4" stroke-width="1.3333" d="M23.467 7.9c0.219 0 0.355 0.064 0.461 0.172 0.108 0.108 0.175 0.258 0.175 0.423 0 0.013-0 0.027-0.001 0.040l0-0.002c0.001 0.011 0.001 0.025 0.001 0.038 0 0.165-0.067 0.315-0.175 0.423l-7.005 7.005 7.005 7.005c0.107 0.107 0.173 0.243 0.173 0.461 0.001 0.011 0.001 0.025 0.001 0.038 0 0.165-0.067 0.315-0.175 0.423l0-0c-0.108 0.108-0.258 0.175-0.423 0.175-0.013 0-0.027-0-0.040-0.001l0.002 0c-0.012 0.001-0.026 0.001-0.040 0.001-0.165 0-0.315-0.067-0.423-0.175l-7.004-7.004-7.005 7.005c-0.108 0.106-0.257 0.172-0.421 0.172-0.015 0-0.029-0.001-0.044-0.002l0.002 0c-0.012 0.001-0.026 0.001-0.040 0.001-0.164 0-0.312-0.066-0.421-0.172l0 0c-0.108-0.108-0.175-0.258-0.175-0.423 0-0.014 0-0.028 0.001-0.041l-0 0.002c0-0.219 0.067-0.356 0.173-0.463l7.004-7.004-0.472-0.471-6.533-6.533c-0.106-0.108-0.172-0.257-0.172-0.421 0-0.015 0.001-0.029 0.002-0.044l-0 0.002c-0.001-0.012-0.001-0.026-0.001-0.040 0-0.164 0.066-0.313 0.173-0.422l-0 0c0.108-0.107 0.257-0.173 0.422-0.173 0.013 0 0.027 0 0.040 0.001l-0.002-0c0.22 0 0.356 0.064 0.463 0.172l7.005 7.004 7.004-7.004c0.108-0.107 0.257-0.173 0.422-0.173 0.014 0 0.029 0 0.043 0.002l-0.002-0z"></path>
</symbol>
<symbol id="icon-logout" viewBox="0 0 32 32">
<path d="M6.072 28.2q-0.92 0-1.596-0.676c-0.416-0.399-0.675-0.959-0.675-1.58 0-0.006 0-0.011 0-0.017v0.001-19.856q0-0.924 0.675-1.601c0.397-0.418 0.956-0.677 1.577-0.677 0.007 0 0.014 0 0.020 0h8.806q0.48 0 0.808 0.333c0.203 0.203 0.328 0.483 0.328 0.792 0 0.008-0 0.017-0 0.025l0-0.001c0 0.008 0 0.017 0 0.026 0 0.306-0.126 0.582-0.328 0.781l-0 0c-0.2 0.2-0.476 0.323-0.781 0.323-0.009 0-0.019-0-0.028-0l0.001 0h-8.807v19.856h8.807c0.008-0 0.017-0 0.026-0 0.307 0 0.584 0.126 0.782 0.329l0 0c0.203 0.201 0.328 0.479 0.328 0.787 0 0.009-0 0.019-0 0.028l0-0.001c0 0.007 0 0.016 0 0.024 0 0.306-0.126 0.582-0.328 0.781l-0 0c-0.2 0.2-0.476 0.323-0.781 0.323-0.009 0-0.019-0-0.028-0l0.001 0zM23.856 17.136h-10.768c-0.008 0-0.017 0-0.026 0-0.307 0-0.584-0.126-0.782-0.329l-0-0c-0.203-0.201-0.328-0.479-0.328-0.787 0-0.009 0-0.019 0-0.028l-0 0.001q0-0.483 0.328-0.805c0.2-0.2 0.477-0.324 0.783-0.324 0.009 0 0.018 0 0.027 0l-0.001-0h10.701l-2.564-2.564c-0.2-0.19-0.325-0.458-0.325-0.755 0-0.016 0-0.031 0.001-0.047l-0 0.002c0.011-0.314 0.146-0.594 0.357-0.794l0-0c0.197-0.21 0.477-0.34 0.787-0.34 0.008 0 0.016 0 0.024 0l-0.001-0c0 0 0.001 0 0.001 0 0.319 0 0.607 0.132 0.813 0.344l0 0 4.529 4.528q0.332 0.343 0.332 0.797c0 0.001 0 0.002 0 0.003 0 0.31-0.128 0.59-0.333 0.791l-0 0-4.493 4.495c-0.188 0.203-0.456 0.329-0.753 0.329-0.014 0-0.028-0-0.042-0.001l0.002 0c-0.319-0.010-0.604-0.143-0.813-0.352l-0-0c-0.204-0.207-0.331-0.492-0.331-0.806 0-0.002 0-0.005 0-0.007v0c-0-0.006-0-0.014-0-0.021 0-0.313 0.133-0.594 0.345-0.791l0.001-0.001z"></path>
</symbol>
<symbol id="icon-logo" viewBox="0 0 103 32">
<path fill="#000" style="fill: var(--color1, #000)" d="M5.84 23.275c-0.268 0.136-0.529 0.125-0.782-0.032s-0.38-0.391-0.38-0.703v-11.16c0-0.199 0.057-0.376 0.172-0.532s0.264-0.27 0.45-0.343l3.626-1.275c0.149-0.057 0.3-0.081 0.453-0.075s0.303 0.032 0.453 0.075l4.807 1.686 3.517-1.41c0.268-0.123 0.53-0.109 0.785 0.042s0.383 0.381 0.383 0.693v6.826c0 0.199-0.066 0.36-0.196 0.482s-0.294 0.184-0.49 0.184c-0.196 0-0.358-0.065-0.487-0.194s-0.194-0.293-0.194-0.492v-6.064l-2.797 1.066v3.368c0 0.173-0.057 0.317-0.17 0.43s-0.257 0.17-0.43 0.17c-0.173 0-0.317-0.057-0.43-0.17s-0.17-0.257-0.17-0.43v-3.368l-3.92-1.32v10.175c0 0.212-0.057 0.405-0.172 0.579s-0.269 0.299-0.465 0.375l-3.56 1.417zM6.040 21.793l2.797-1.066v-10l-2.797 0.926v10.14zM15.558 21.707c0.484 0 0.893-0.169 1.225-0.506s0.497-0.74 0.494-1.208c-0.003-0.484-0.169-0.892-0.498-1.223s-0.736-0.496-1.22-0.496c-0.484 0-0.891 0.165-1.22 0.496s-0.494 0.738-0.494 1.223c0 0.484 0.165 0.891 0.494 1.22s0.736 0.494 1.22 0.494zM15.558 23.075c-0.849 0-1.575-0.301-2.177-0.904s-0.904-1.328-0.904-2.177c0-0.862 0.301-1.592 0.904-2.19s1.328-0.896 2.177-0.896c0.862 0 1.592 0.299 2.19 0.896s0.896 1.328 0.896 2.19c0 0.3-0.041 0.587-0.123 0.859s-0.2 0.526-0.353 0.763l1.587 1.592c0.123 0.123 0.185 0.268 0.186 0.437s-0.060 0.315-0.186 0.437c-0.119 0.122-0.264 0.184-0.433 0.184s-0.316-0.061-0.442-0.184l-1.583-1.558c-0.253 0.183-0.523 0.321-0.81 0.413s-0.597 0.138-0.93 0.138z"></path>
<path fill="#4c2613" style="fill: var(--color2, #4c2613)" d="M25.753 20.8v-10.049h3.919c0.88 0 1.632 0.139 2.254 0.416s1.101 0.68 1.436 1.206c0.335 0.526 0.502 1.153 0.502 1.881s-0.168 1.354-0.502 1.88c-0.335 0.517-0.813 0.914-1.436 1.192s-1.373 0.416-2.254 0.416h-3.129l0.646-0.66v3.718h-1.436zM32.471 20.8l-2.555-3.646h1.536l2.584 3.646h-1.565zM27.188 17.226l-0.646-0.703h3.086c0.919 0 1.613-0.196 2.082-0.589 0.478-0.402 0.718-0.962 0.718-1.68s-0.239-1.273-0.718-1.665c-0.469-0.392-1.163-0.589-2.082-0.589h-3.086l0.646-0.718v5.943zM39.226 20.886c-0.814 0-1.531-0.168-2.153-0.502-0.612-0.335-1.091-0.794-1.436-1.378-0.335-0.584-0.502-1.254-0.502-2.010s0.163-1.426 0.488-2.010c0.335-0.584 0.79-1.038 1.364-1.364 0.584-0.335 1.239-0.502 1.967-0.502 0.737 0 1.388 0.163 1.952 0.488s1.005 0.785 1.321 1.378c0.325 0.584 0.488 1.268 0.488 2.053 0 0.057-0.005 0.124-0.014 0.201 0 0.077-0.005 0.148-0.014 0.215h-6.474v-0.991h5.756l-0.56 0.345c0.010-0.488-0.091-0.924-0.301-1.306s-0.502-0.68-0.876-0.89c-0.364-0.22-0.79-0.33-1.278-0.33-0.478 0-0.904 0.11-1.278 0.33-0.373 0.21-0.665 0.512-0.876 0.904-0.211 0.383-0.316 0.823-0.316 1.321v0.23c0 0.507 0.115 0.962 0.344 1.364 0.239 0.392 0.569 0.699 0.99 0.919s0.904 0.33 1.45 0.33c0.45 0 0.856-0.077 1.22-0.23 0.373-0.153 0.699-0.383 0.976-0.689l0.761 0.89c-0.344 0.402-0.775 0.708-1.292 0.919-0.507 0.211-1.077 0.316-1.708 0.316zM44.485 20.8v-10.652h1.378v10.652h-1.378zM53.073 20.8v-1.608l-0.072-0.301v-2.742c0-0.584-0.172-1.034-0.517-1.349-0.335-0.325-0.842-0.488-1.522-0.488-0.45 0-0.89 0.077-1.321 0.23-0.431 0.144-0.794 0.34-1.091 0.589l-0.574-1.034c0.392-0.316 0.861-0.555 1.407-0.718 0.555-0.172 1.134-0.258 1.737-0.258 1.043 0 1.847 0.254 2.412 0.761s0.847 1.282 0.847 2.326v4.594h-1.306zM50.575 20.886c-0.565 0-1.062-0.096-1.493-0.287-0.421-0.191-0.746-0.455-0.976-0.79-0.23-0.345-0.345-0.732-0.345-1.163 0-0.412 0.096-0.785 0.287-1.12 0.201-0.335 0.522-0.603 0.962-0.804 0.45-0.201 1.053-0.301 1.809-0.301h2.412v0.99h-2.354c-0.689 0-1.153 0.115-1.392 0.345s-0.359 0.507-0.359 0.833c0 0.373 0.148 0.675 0.445 0.904 0.297 0.22 0.708 0.33 1.235 0.33 0.517 0 0.967-0.115 1.349-0.344 0.392-0.23 0.675-0.565 0.847-1.005l0.273 0.947c-0.182 0.45-0.502 0.809-0.962 1.077-0.459 0.258-1.038 0.388-1.737 0.388zM55.681 20.8l3.273-4.249-0.014 0.703-3.115-4.062h1.536l2.383 3.129h-0.589l2.383-3.129h1.507l-3.158 4.091 0.014-0.732 3.302 4.249h-1.565l-2.512-3.33 0.56 0.086-2.469 3.244h-1.536zM68.476 20.8v-10.049h1.177l4.508 7.594h-0.632l4.45-7.594h1.177l0.014 10.049h-1.378l-0.014-7.881h0.33l-3.962 6.661h-0.66l-3.991-6.661h0.359v7.881h-1.378zM86.565 20.8v-1.608l-0.072-0.301v-2.742c0-0.584-0.172-1.034-0.517-1.349-0.335-0.325-0.842-0.488-1.522-0.488-0.45 0-0.89 0.077-1.321 0.23-0.43 0.144-0.794 0.34-1.091 0.589l-0.574-1.034c0.393-0.316 0.862-0.555 1.407-0.718 0.555-0.172 1.134-0.258 1.737-0.258 1.043 0 1.847 0.254 2.412 0.761s0.846 1.282 0.846 2.326v4.594h-1.306zM84.066 20.886c-0.564 0-1.062-0.096-1.493-0.287-0.421-0.191-0.746-0.455-0.976-0.79-0.23-0.345-0.345-0.732-0.345-1.163 0-0.412 0.096-0.785 0.287-1.12 0.201-0.335 0.522-0.603 0.962-0.804 0.45-0.201 1.053-0.301 1.809-0.301h2.412v0.99h-2.354c-0.689 0-1.153 0.115-1.392 0.345s-0.359 0.507-0.359 0.833c0 0.373 0.148 0.675 0.445 0.904 0.297 0.22 0.708 0.33 1.234 0.33 0.517 0 0.967-0.115 1.35-0.344 0.393-0.23 0.675-0.565 0.847-1.005l0.273 0.947c-0.182 0.45-0.502 0.809-0.962 1.077-0.46 0.258-1.038 0.388-1.738 0.388zM94.311 20.886c-0.631 0-1.21-0.144-1.737-0.431-0.517-0.297-0.933-0.732-1.249-1.306-0.306-0.574-0.459-1.292-0.459-2.153s0.148-1.579 0.445-2.153c0.306-0.574 0.718-1.005 1.234-1.292 0.526-0.287 1.115-0.431 1.766-0.431 0.746 0 1.407 0.163 1.981 0.488s1.029 0.78 1.364 1.364c0.335 0.574 0.502 1.249 0.502 2.024s-0.167 1.455-0.502 2.038-0.79 1.038-1.364 1.364c-0.574 0.325-1.234 0.488-1.981 0.488zM90.278 23.585v-10.393h1.321v2.053l-0.086 1.766 0.143 1.766v4.809h-1.378zM94.197 19.68c0.488 0 0.923-0.11 1.306-0.33 0.393-0.22 0.699-0.531 0.919-0.933 0.23-0.412 0.345-0.885 0.345-1.421 0-0.546-0.115-1.014-0.345-1.407-0.22-0.402-0.526-0.713-0.919-0.933-0.382-0.22-0.818-0.33-1.306-0.33-0.479 0-0.914 0.11-1.306 0.33-0.383 0.22-0.69 0.531-0.919 0.933-0.22 0.392-0.33 0.861-0.33 1.407 0 0.536 0.11 1.010 0.33 1.421 0.23 0.402 0.536 0.713 0.919 0.933 0.392 0.22 0.827 0.33 1.306 0.33z"></path>
</symbol>
<symbol id="icon-facebook" viewBox="0 0 32 32">
<path fill="#4c2613" style="fill: var(--color2, #4c2613)" d="M29.333 16.405c0-7.409-5.969-13.415-13.333-13.415s-13.333 6.006-13.333 13.415c0 6.696 4.876 12.245 11.25 13.252v-9.374h-3.385v-3.878h3.385v-2.955c0-3.362 1.991-5.219 5.036-5.219 1.459 0 2.985 0.262 2.985 0.262v3.301h-1.681c-1.656 0-2.173 1.034-2.173 2.095v2.516h3.698l-0.591 3.878h-3.107v9.374c6.374-1.006 11.25-6.556 11.25-13.252z"></path>
</symbol>
<symbol id="icon-instagram" viewBox="0 0 32 32">
<path fill="#4c2613" style="fill: var(--color2, #4c2613)" d="M16.007 6.488c3.206 0 3.585 0.014 4.846 0.071 1.172 0.052 1.804 0.248 2.227 0.412 0.558 0.216 0.961 0.478 1.378 0.895 0.422 0.422 0.679 0.82 0.9 1.378 0.164 0.422 0.361 1.059 0.412 2.226 0.056 1.266 0.071 1.645 0.071 4.847s-0.014 3.585-0.071 4.847c-0.052 1.172-0.248 1.804-0.412 2.226-0.216 0.558-0.478 0.961-0.895 1.378-0.422 0.422-0.82 0.679-1.377 0.9-0.422 0.164-1.060 0.361-2.227 0.412-1.266 0.056-1.645 0.071-4.847 0.071s-3.585-0.014-4.847-0.071c-1.172-0.052-1.804-0.248-2.226-0.412-0.558-0.216-0.961-0.478-1.378-0.895-0.422-0.422-0.679-0.82-0.9-1.378-0.164-0.422-0.361-1.060-0.412-2.226-0.056-1.266-0.071-1.645-0.071-4.847s0.014-3.585 0.071-4.847c0.052-1.172 0.248-1.804 0.412-2.226 0.216-0.558 0.478-0.961 0.895-1.378 0.422-0.422 0.82-0.679 1.378-0.9 0.422-0.164 1.059-0.361 2.226-0.412 1.261-0.056 1.641-0.071 4.847-0.071h0.001zM16.007 4.328c-3.258 0-3.665 0.014-4.945 0.071-1.275 0.056-2.151 0.262-2.91 0.558-0.792 0.309-1.462 0.717-2.127 1.387-0.67 0.666-1.078 1.336-1.387 2.123-0.295 0.764-0.502 1.636-0.558 2.91-0.056 1.285-0.071 1.692-0.071 4.949s0.014 3.665 0.071 4.945c0.056 1.275 0.262 2.151 0.558 2.91 0.31 0.792 0.717 1.462 1.387 2.127 0.665 0.665 1.336 1.078 2.123 1.383 0.764 0.295 1.636 0.502 2.91 0.558 1.279 0.056 1.687 0.070 4.945 0.070s3.665-0.014 4.945-0.070c1.275-0.056 2.151-0.263 2.91-0.558 0.787-0.304 1.458-0.717 2.123-1.383s1.078-1.336 1.383-2.123c0.295-0.764 0.502-1.635 0.558-2.91 0.056-1.279 0.070-1.687 0.070-4.945s-0.014-3.665-0.070-4.945c-0.056-1.275-0.263-2.151-0.558-2.91-0.295-0.797-0.703-1.467-1.373-2.133-0.665-0.665-1.336-1.078-2.123-1.383-0.764-0.295-1.636-0.502-2.91-0.558-1.284-0.061-1.692-0.075-4.949-0.075l-0.001 0.001z"></path>
<path fill="#4c2613" style="fill: var(--color2, #4c2613)" d="M16.007 10.163c-3.402 0-6.163 2.76-6.163 6.163s2.76 6.163 6.163 6.163 6.163-2.76 6.163-6.163c0-3.402-2.76-6.163-6.163-6.163zM16.007 20.324c-2.208 0-3.998-1.79-3.998-3.998s1.79-3.998 3.998-3.998 3.998 1.79 3.998 3.998c0 2.208-1.79 3.998-3.998 3.998z"></path>
<path fill="#4c2613" style="fill: var(--color2, #4c2613)" d="M23.851 9.919c0 0.795-0.644 1.439-1.439 1.439s-1.439-0.644-1.439-1.439 0.644-1.439 1.439-1.439c0.795 0 1.439 0.644 1.439 1.439z"></path>
</symbol>
<symbol id="icon-x" viewBox="0 0 32 32">
<path fill="#4c2613" style="fill: var(--color2, #4c2613)" d="M22.901 5.657h3.68l-8.040 9.037 9.459 12.297h-7.406l-5.801-7.458-6.637 7.458h-3.682l8.6-9.666-9.074-11.668h7.594l5.243 6.817 6.064-6.817zM21.61 24.824h2.039l-13.163-17.115h-2.188l13.312 17.115z"></path>
</symbol>
<symbol id="icon-youtube" viewBox="0 0 32 32">
<path fill="#4c2613" style="fill: var(--color2, #4c2613)" d="M28.791 9.604c-0.152-0.563-0.449-1.077-0.861-1.49s-0.925-0.711-1.489-0.864c-2.088-0.573-10.441-0.583-10.441-0.583s-8.352-0.009-10.441 0.539c-0.563 0.16-1.075 0.462-1.487 0.878s-0.711 0.929-0.867 1.493c-0.551 2.088-0.556 6.419-0.556 6.419s-0.005 4.352 0.541 6.419c0.307 1.143 1.207 2.045 2.351 2.353 2.109 0.573 10.44 0.583 10.44 0.583s8.353 0.009 10.441-0.537c0.563-0.153 1.077-0.45 1.49-0.862s0.712-0.925 0.866-1.488c0.552-2.087 0.556-6.416 0.556-6.416s0.027-4.353-0.543-6.441zM13.328 20.007l0.007-8 6.943 4.007-6.949 3.993z"></path>
</symbol>
</defs>
</svg>
